<?xml version="1.0" encoding="utf-8"?>
<!-- Generator: Adobe Illustrator 19.1.0, SVG Export Plug-In . SVG Version: 6.00 Build 0)  -->
<svg version="1.1" id="Capa_1" xmlns="http://www.w3.org/2000/svg" xmlns:xlink="http://www.w3.org/1999/xlink" x="0px" y="0px"
	 viewBox="-467 272.2 24 18.5" style="enable-background:new -467 272.2 24 18.5;" xml:space="preserve">
<style type="text/css">
	.st0{fill:none;}
</style>
<path class="st0" d="M-541,298h48v48h-48V298z M-467,269h24v24h-24V269z M-467,269h24v24h-24V269z"/>
<path fill="#b7b7b7" d="M-453.9,281h7.6v1.6h-7.6V281z M-453.9,278.2h7.6v1.6h-7.6V278.2z M-453.9,283.7h7.6v1.6h-7.6V283.7z M-445.2,272.2h-19.6
	c-1.2,0-2.2,1-2.2,2.2v14.1c0,1.2,1,2.2,2.2,2.2h19.6c1.2,0,2.2-1,2.2-2.2v-14.1C-443,273.2-444,272.2-445.2,272.2z M-445.2,288.6
	h-9.8v-14.1h9.8V288.6z"/>
</svg>
