<?xml version="1.0" encoding="utf-8"?>
<!-- Generator: Adobe Illustrator 19.1.0, SVG Export Plug-In . SVG Version: 6.00 Build 0)  -->
<svg version="1.1" id="Capa_1" xmlns="http://www.w3.org/2000/svg" xmlns:xlink="http://www.w3.org/1999/xlink" x="0px" y="0px"
	 viewBox="-467 261.9 24 28.9" style="enable-background:new -467 261.9 24 28.9;" xml:space="preserve">
<style type="text/css">
	.st0{fill:none;}
	.st1{fill:"#FFF";}
</style>
<path class="st0" d="M-541,298h48v48h-48V298z M-467,269h24v24h-24V269z M-467,269h24v24h-24V269z"/>
<g>
	<path class="st1"  fill="#FFF" d="M-449.9,276.1c-3.6-3.7-5.7-0.7-5.9-0.1c-0.2,0.5-1.9,2.6-3.6,3.3c-1.2,0.5-3.5,1.4-4.9,2.1
		c-1.7,0.8-1.1,4.3,0.8,6.5c2.2,2.5,5.7-4.1,8.8-2c1,0.7,1.2,8.4,6.2,2.9c1.2-1.3,0.7-2.1-0.1-4.8
		C-449,281.8-447.3,278.8-449.9,276.1z"/>
	<path class="st1" fill="#FFF" d="M-444.2,274.2c0-0.2-0.1-0.4-0.1-0.7c0-0.6-0.4-1.3,0.8-2.2c0.1-0.1-0.6,0-1.1,0.4c-0.2,0.2-0.5,0.5-0.7,0.9
		c-0.3-0.2-0.5-0.1-0.5,0.4c0,2.4-0.1,2.8-1,3.7c-0.8,0.8-0.5,2.4-0.5,3.9c0,0.7-0.5,4.9,1.8,3.4
		C-441.9,281.5-442.9,276.8-444.2,274.2z"/>
	<path class="st1" fill="#FFF" d="M-462.3,275.4c-1-3.1,1.2-7.3-0.8-6.9c-0.1-0.5-0.2-1.2,0.8-1.9c0.1-0.1-0.6,0-1.1,0.4c-0.4,0.3-1,1.3-1.1,2.1
		c-0.2,0.1-0.5,0.3-0.8,0.5c-1,0.6-2.5,5.5-1.2,8.4c1.3,2.8,2.8,2.2,3.9,1.7C-460.9,278.7-461.1,278.9-462.3,275.4z"/>
	<path class="st1" fill="#FFF" d="M-456.5,263.7c-0.1-0.5-0.1-1.1,0.8-1.8c0.1-0.1-0.6,0-1.1,0.4c-0.2,0.2-0.5,0.6-0.8,1.1
		c-1,0.2-1.8,1.6-2.8,4.1c-1.6,3.5-1.1,11.1,1.8,10c1.5-0.6,1-2.6,3.8-4.6C-451.9,271-455,264.8-456.5,263.7z"/>
	<path class="st1" fill="#FFF" d="M-450.1,264.5c0-0.1,0-0.2,0-0.3c0-0.6-0.4-1.3,0.8-2.2c0.1-0.1-0.6,0-1.1,0.4c-0.3,0.2-0.7,0.8-0.9,1.4
		c-0.5-0.1-1.1,0-1.7,0.3c-0.8,0.5-1.4,0.8-0.9,1.5c1.3,1.8,1.8,4.3,1.5,5.9c-0.1,0.7,0.1,1.3,0.6,1.8c1.6,1.4,4.8,3.7,5.1,0.6
		C-446.7,272.1-447.9,266.5-450.1,264.5z"/>
</g>
</svg>
